<?xml version="1.0" encoding="iso-8859-1"?>
<!-- Uploaded to: SVG Repo, www.svgrepo.com, Generator: SVG Repo Mixer Tools -->
<svg version="1.1" id="Layer_1" xmlns="http://www.w3.org/2000/svg" xmlns:xlink="http://www.w3.org/1999/xlink" 
	 viewBox="0 0 512.4 512.4" xml:space="preserve">
<rect x="240.2" width="32" height="42"/>
<polyline style="fill:#32BEA6;" points="49.464,357.664 49.464,36.832 462.936,36.832 462.936,357.664 "/>
<rect x="0.2" y="346.816" width="512" height="48"/>
<rect x="159.208" y="426.656" width="193.92" height="16"/>
<rect x="144.22" y="384.904" transform="matrix(-0.967 -0.2549 0.2549 -0.967 201.0487 921.3369)" width="32.001" height="125.476"/>
<rect x="289.506" y="431.661" transform="matrix(-0.255 -0.9669 0.9669 -0.255 9.2046 902.4128)" width="125.467" height="31.999"/>
<g>
	<path style="fill:#FFFFFF;" d="M141.768,201.088c12.512-11.392,24.688-19.824,36.464-25.36c11.792-5.52,20.912-8.288,27.328-8.288
		c1.728,0,3.344,0.72,4.832,2.16c1.488,1.456,2.656,3.12,3.52,5.008c0.88,1.888,1.296,3.296,1.296,4.208
		c0,1.488-0.576,2.576-1.712,3.28c-1.152,0.704-3.184,1.552-6.064,2.528c0.576,1.312,1.312,3.008,2.224,5.056
		c0.912,2.064,1.616,3.728,2.112,5.008c0.48,1.28,0.736,2.4,0.736,3.408c0,1.968-2,5.664-6,11.056s-6.8,9.376-8.4,11.936
		c-1.616,2.544-2.4,5.68-2.4,9.392c0,6.112,2.8,9.152,8.4,9.152c5.76,0,14.8-5.408,27.072-16.208v7.552
		c-20.864,23.152-35.776,34.752-44.768,34.752c-3.2,0-5.504-1.056-6.864-3.152c-1.36-2.112-2.032-5.216-2.032-9.344
		c0-6.512,2.336-15.952,7.04-28.32c-12.048,13.36-20.992,22.864-26.848,28.496c-5.84,5.664-10.672,8.464-14.448,8.464
		c-1.824,0-4.096-1.568-6.816-4.704c-2.72-3.12-5.12-7.184-7.232-12.176c-2.096-4.992-3.152-10.16-3.152-15.52
		c0-3.872,0.368-7.104,1.12-9.696c0.736-2.608,2.176-5.264,4.336-7.984C133.64,209.12,137.064,205.52,141.768,201.088z
		 M200.984,187.472c-21.44,9.808-36.704,18.144-45.808,24.992s-13.664,13.888-13.664,21.136c0,2.64,0.448,4.8,1.36,6.48
		c0.912,1.696,2.144,2.544,3.696,2.544c0.912,0,2.512-0.576,4.832-1.728c8.656-5.104,16.56-11.76,23.728-19.968
		S190.936,201.568,200.984,187.472z"/>
	<path style="fill:#FFFFFF;" d="M311.912,223.456v8.032c-8.576,5.456-15.344,8.176-20.288,8.176c-2.72,0-5.616-0.448-8.656-1.36
		c-7.424,9.392-13.792,16.288-19.104,20.64c-5.312,4.368-10.656,6.56-16.016,6.56c-6.176,0-10.944-3.264-14.288-9.776
		c-3.344-6.496-4.992-14.576-4.992-24.24c0-13.088,3.952-27.392,11.856-42.848c7.92-15.456,17.456-29.92,28.624-43.408
		c11.168-13.472,22-24.624,32.464-33.44c10.464-8.832,17.568-13.232,21.264-13.232c3.552,0,5.312,2.432,5.312,7.296
		c0,21.6-27.68,59.264-83.088,113.008c-0.16,1.488-0.256,4.4-0.256,8.784c0,11.376,3.04,17.056,9.152,17.056
		c2.384,0,4.8-0.976,7.232-2.912s6.16-5.632,11.184-11.056c-1.968-4.448-2.976-7.744-2.976-9.888c0-4.528,1.856-9.44,5.568-14.72
		s7.936-9.824,12.688-13.664c4.736-3.84,8.176-5.744,10.32-5.744c3.392,0,5.072,2.416,5.072,7.28c0,3.712-0.976,8.176-2.912,13.36
		c-1.936,5.2-4.768,11.12-8.464,17.808c1.392,1.152,2.512,2,3.328,2.528c0.832,0.528,2.064,0.8,3.712,0.8
		C302.456,228.528,306.872,226.832,311.912,223.456z M249.08,204.912c4.304-3.712,8.592-8.096,12.928-13.168
		c4.336-5.056,10.656-12.848,18.992-23.312c8-10.048,14.288-18.432,18.864-25.152s8.016-12.32,10.336-16.752
		c2.304-4.448,3.456-7.504,3.456-9.152c0-1.232-0.336-1.856-0.992-1.856c-1.808,0-5.584,2.992-11.312,8.976
		s-12.272,14.16-19.6,24.544c-10.144,14.336-17.488,25.136-22.016,32.384C255.192,188.672,251.64,196.512,249.08,204.912z"/>
	<path style="fill:#FFFFFF;" d="M386.344,223.456v8.288c-8.832,8.656-16.016,15.376-21.584,20.16
		c-5.568,4.784-10.768,8.496-15.584,11.12c-4.832,2.64-9.552,3.968-14.16,3.968c-4.544,0-8.704-1.792-12.496-5.392
		c-3.792-3.584-6.752-8.288-8.912-14.096c-2.144-5.808-3.2-11.968-3.2-18.48c0-5.616,1.232-10.592,3.696-14.96
		c2.464-4.368,7.248-10.032,14.336-16.96c8.4-8.24,16.224-14.608,23.44-19.088c7.2-4.496,12.88-6.752,16.992-6.752
		c2.976,0,5.488,1.024,7.552,3.088c2.048,2.064,3.072,4.656,3.072,7.792c0,2.64-1.36,6.384-4.08,11.248s-5.76,9.088-9.136,12.672
		c-3.392,3.6-6.064,5.376-8.048,5.376c-2.144,0-3.2-1.136-3.2-3.456c0.08-0.656,0.144-1.28,0.176-1.856
		c0.048-0.576,0.064-1.152,0.064-1.728c0-0.992-0.336-1.552-1.04-1.664s-1.552,0.192-2.528,0.944
		c-8.256,5.76-13.888,9.824-16.944,12.176c-3.056,2.352-5.472,4.72-7.232,7.104c-1.776,2.384-2.656,4.912-2.656,7.552
		c0,4.864,1.568,8.832,4.688,11.872c3.136,3.04,7.216,4.576,12.256,4.576c5.184,0,11.44-2,18.736-6S376.456,231.136,386.344,223.456
		z"/>
</g>
</svg>